<?xml version="1.0" encoding="UTF-8"?>
<svg version="1.1" viewBox="0 0 2048 2048" width="2048" height="2048" xmlns="http://www.w3.org/2000/svg">
<path transform="translate(0)" d="m0 0h2048v2048h-2048z" fill="#E7B54A"/>
<path transform="translate(0)" d="m0 0h2048v2048h-2048zm524 85-34 3-26 4-40 10-24 7-26 10-14 6-16 8-25 13-23 15-11 7-14 10-14 11-7 5v2l-4 2-13 12-10 9-16 16-9 11-9 10-11 14-9 13-8 12-11 17-12 22-16 32-11 28-7 22-6 22-6 27-5 29-4 36-1 837 1 334 3 26 6 28 6 20 8 21 8 16 9 16 10 15 10 14 2 3h2l2 4 9 10 15 16 8 7 12 10 18 13 17 10 19 10 30 12 24 7 25 5 12 1h1370l19-2 24-5 26-8 22-9 27-14 14-9 15-11 11-9 10-9 4-4v-2l4-2 10-10 9-11 11-15 12-18 10-18 10-23 6-17 6-20 6-34 1-10v-1172l-2-23-5-35-4-22-7-26-8-26-8-22-11-26-13-26-10-17-10-16-10-14-12-16-8-10-12-14-4-5h-2l-2-4-25-25-11-9-7-6-13-10-16-12-10-7-21-13-23-13-27-13-20-8-21-8-26-7-28-7-38-6-25-2z" fill="#FBFBF8"/>
<path transform="translate(1007,392)" d="m0 0h32l23 2 26 5 21 6 21 7 38 19 16 10 9 7 10 8 10 9 11 9 13 15 10 11 8 10 4 8 10 14 9 16 9 19 13 39 6 27 2 18 3 7 5 5 7 4 10 1 13-4 4-4 2-6 1-14-4-28-5-21-12-35-3-6-1-4 5-3 23-4 23-2h31l22 2 20 4 37 10 24 10 16 8 18 11 18 13 9 7 25 25 9 11 7 11 7 9 11 18 8 17 10 26 4 11 6 31 2 19 1 21-3 31-6 30-5 16-11 26-7 13-13 21-13 17-14 15-13 13-11 9-9 7-17 11-23 12-20 9-35 10-26 4-17 1-19-1-19-3-15-4h-10l-10 5-5 6-3 10 1 9 5 9 8 4 14 4 14 3 22 3 3 24 5 39 3 34-12-3-4-2-16-4-52-14-22-5-35-8-19-4-17-3-13-2-2-2v-15l1-29 3-34 5-32 10-48 8-25 7-21 9-21 7-15 10-19 10-16 9-13 2-8-1-9-4-8-9-6-3-1h-12l-6 3-5 5-6 7-10 16-8 14-14 27-5 13-5 12-6 15-12 40-6 24-5 32-4 22-3 26-1 13-2 45-11-1-24-3-43-3-32-1-7-1-1-315-2-9-8-9-7-3h-9l-10 3-5 5-3 7-1 321-15 1-42 1-47 3-32 4h-6l-3-57-4-35-3-16-8-42-9-32-7-22-6-17-7-15-4-10-16-31-12-19-9-11-6-5-9-3-7 1-10 4-6 8-2 5v9l3 8 9 12 15 24 15 32 6 15 7 20 8 26 6 29 6 31 5 40 1 14 1 43-3 2-34 6-15 3-15 4-23 5-22 5-45 12-21 6-6 2-8 2v-9l5-48 2-13 2-23 1-4 26-4 22-5 10-5 6-9v-12l-3-10-4-2-8-5-8-1-20 4-19 3-24 1-21-2-21-4-18-5-13-4-14-6-24-12-12-8-9-5-11-9-13-11-12-11-7-8-12-14-9-13-12-21-8-16-10-25-5-17-5-30-1-10v-35l4-29 5-23 8-24 8-19 6-11 8-13 7-11 8-10 7-9 8-8 7-8 8-8 11-9 13-10 18-12 15-9 16-7 21-8 36-10 16-3 28-2h30l25 3 22 5-1 5-4 9-9 30-6 21-2 9-3 27 2 10 4 6 10 5 4 1h8l12-6 3-3 3-10 4-29 5-21 7-20 7-17 9-17 4-9 9-14 7-10 7-9 8-10 12-13 7-8 6-5h2v-2h2v-2l14-11 13-10 15-10 14-8 23-11 16-6 25-7 13-3 16-3z" fill="#FBFBF8"/>
<path transform="translate(1006,345)" d="m0 0h35l31 3 24 5 28 7 20 7 29 13 20 11 14 9 10 7 12 9 3 2v2l4 2 14 12 18 18v2l4 2 9 11 10 13 10 14 5 8 26-6 30-4 16-1h33l26 2 25 4 28 7 23 8 26 11 23 13 11 7 13 9 12 9 15 13 22 22 11 14 7 8 4 7 10 15 11 19 7 15 8 20 9 29 4 22 3 23 1 11v36l-4 37-5 22-6 18-10 25-4 9-13 24-11 16-10 13-13 16-15 15h-2v2l-22 18-17 12-11 7-24 14-35 14-25 7-18 4-14 2 8 75 5 52 7 72 3 26 5 47 3 35v15l-5 10-7 5-5 2h-13l-25-7-26-7-23-5-2 13-6 34-5 19-8 21-10 19-10 13-11 11-11 8-18 10-17 6-13 3-20 3h-39l-25-4-22-6-2-1 8 18 3 11 1 9v11l-3 14-7 16-2 3v3l17 7 18 10 32 22 19 9 14 4h20l16-5 13-8 4-2v-2l8-7 2-3h2v-2l3-1 2 2 1 4v16l-3 15-6 15-6 11-8 10-12 12-14 9-12 6-15 4-8 1h-25l-17-3-15-6 3 5 6 7 11 9 5 5-7 2h-25l-15-2-21-6-17-8-16-10-10-9h-2l8 20 3 9-11-2-15-5-19-9-12-9-10-9-8-8-10-15-2-4-7 10-8 11-13 13-16 11-16 8-16 6-12 3 1-6 7-16 4-10-8 7-8 6-15 9-14 7-18 5-17 3h-31l-3-3 14-12 12-11 1-2-15 6-9 2-9 1h-24l-14-2-15-5-14-8-10-8-9-8-8-10-8-14-6-18-2-15v-9l1-7 2-1 6 4 14 14 10 6 13 5 14 2 15-2 15-5 16-8 22-15 14-9 16-8 12-5h3l-8-16-4-12-1-5v-21l4-15 6-14 2-3-20 6-20 4-7 1h-42l-24-4-20-6-16-8-12-7-10-8-14-16-7-11-9-19-8-24-5-22-5-34-11 1-35 9-30 8h-11l-10-5-6-7-3-9 4-47 5-49 3-25 3-34 4-44 8-78 4-40-7-2-25-5-23-6-22-9-19-8-20-12-12-7-16-12-10-8-15-13-15-15-9-11-12-15-10-15-6-10-8-15-8-18-10-27-6-23-5-32-1-12v-37l3-29 3-18 6-22 11-30 7-16 10-18 10-16 8-12 7-8 4-6 11-12 9-10 10-9 3-3h2v-2l14-11 9-7 15-10 21-12 16-8 29-12 24-7 22-5 30-4 18-1h26l29 2 30 5 17 4 9-13 6-9 12-15h2l2-4 11-12 7-8 13-12 11-9 16-13 10-6 15-10 26-14 26-11 21-7 31-8 26-4zm1 47-27 3-21 4-23 7-18 6-17 8-17 9-14 9-14 10-16 13-3 2v2h-2v2l-4 2-10 9-7 8-9 10-7 9-7 10-9 13-7 11-4 9-12 25-11 33-4 19-3 24-3 10-8 6-7 3h-8l-11-4-5-4-3-7-1-9 3-25 6-24 6-19 6-20 4-8v-3l-22-5-25-3h-35l-23 2-19 4-33 9-16 6-16 7-14 7-21 14-16 12-14 12-11 11-7 8-8 9-4 6-9 12-9 15-5 9-5 10-8 19-7 23-6 31-2 17v35l3 24 5 24 7 20 9 21 5 9 13 23 10 13 12 14 11 12 8 7 13 11 15 11 9 5 13 8 16 7 8 4 9 4 11 3 21 6 24 4 22 1 25-2 20-4 13-2 8 2 8 6h2l3 10v12l-6 9-10 5-26 6-22 3-2 14-2 20-4 33-2 21v9l13-3 8-3 48-13 27-7 25-5 17-4 12-3 26-5 13-2 3-3-1-42-3-32-4-28-7-34-5-24-11-33-7-19-11-24-8-16-13-21-10-14-2-6v-9l5-10 5-4 11-4 8 1 8 4 8 9 10 14 10 18 15 29 4 10 9 22 7 24 8 26 8 38 4 20 4 33 2 25 2 42 13-1 25-3 47-3 45-1 12-1 1-321 5-10 8-4 5-1h9l8 4 7 8 2 9 1 315 12 1 27 1 43 3 30 4h5l2-45 3-30 4-26 5-30 3-15 7-26 11-36 7-17 5-12 11-23 12-22 10-15 6-8 5-5 4-3 3-1h12l10 5 4 5 3 10-1 9-5 9-12 18-12 22-6 12-12 28-6 19-8 25-11 53-5 35-2 26-1 29v15l2 2 27 4 6 2 16 3 40 9 25 6 32 9 19 5 11 3 12 4h2l-3-34-6-48-2-15-22-3-25-6-9-4-4-4-3-6-1-9 3-10 5-6 10-5h10l20 5 14 2 20 1 25-2 21-4 31-9 14-6 16-8 18-10 19-13 11-10 8-7 16-16 9-11 11-15 15-25 7-15 8-20 4-13 6-30 3-31-1-23-3-23-5-25-10-27-10-23-9-16-10-14-7-10-6-8-12-13-20-20-19-13-10-7-18-11-27-12-15-5-30-8-20-4-22-2h-33l-21 2-23 4-5 3 1 4 5 11 10 30 6 26 3 23-1 14-3 7-5 4-11 3-10-1-9-5-5-7-2-9-1-13-5-23-6-20-6-17-7-17-11-21-12-17-5-9-14-17-7-7-9-11-14-12-10-9-9-7-18-12-18-10-23-11-16-6-24-7-24-5-15-2-14-1z" fill="#010201"/>
<path transform="translate(975,1173)" d="m0 0h107l10 1 24 1 35 3 37 5 15 3 43 7 62 14 30 7 28 8 25 7 27 9 1 1 2 20 10 97 1 17-10-2-12-6v-16l-3-8-7-6-10-3-27-6-34-7-3-2 19-9 13-12-4-7-6-7-10-8-12-6-11-3-31-1 1-2h2v-2l15-11 2-2-5-2-11-2h-23l-22 5-23 9-5 2 2-5 9-13 8-8-1-1h-16l-17 3-18 6-13 7-20 15 2-9 6-15 3-5-16 5-12 5-15 10-12 12-7 12-5 14-1 6v25l1 9-5 4-8 7h-2v2l-8 7-7 3-13-1-8-1h-33l-14 2h-9l-6-3-12-11-11-9 1-17v-13l-3-14-6-15-9-12-10-9-13-8-16-7-12-3 6 10 5 11 2 8-4-2-10-8-15-9-14-6-9-3-17-3h-19l5 5 10 11 6 10-2 1-18-8-11-4-19-4h-23l-15 3-2 2 11 7 9 8v1l-26 1-12 2-12 5-11 8-10 11-2 3v4l13 10 19 9-1 2-26 5-18 4-23 5-9 4-4 5-2 6-1 20-20 6h-4l2-30 3-25 5-51 3-29 8-4 21-6 24-7 44-12 45-10 34-7 48-8 15-3 40-5 25-2z" fill="#FBFBF6"/>
<path transform="translate(816,1347)" d="m0 0h20l33 2 28 4 15 4 15 6 9 6 6 7 5 10 2 11v12l-2 18-4 18-7 21-7 14-10 14-12 13-11 8-17 9-15 5-15 3-7 1h-33l-19-3-17-5-14-7-11-8-7-7-7-10-9-17-7-21-4-17-3-23v-29l4-12 5-7 9-6 18-6 14-3 37-4z" fill="#FBFBF7"/>
<path transform="translate(1218,1347)" d="m0 0h16l22 1 35 4 17 4 12 5 9 6 6 9 3 9 1 7v12l-2 24-4 22-6 20-8 18-7 11-11 12-11 8-12 6-12 4-16 3-11 1h-29l-19-3-15-4-19-9-13-9-13-13-7-10-6-10-6-14-7-23-3-14-1-8v-24l3-10 7-11 9-6 16-7 13-4 35-5 10-1z" fill="#FBFBF7"/>
<path transform="translate(1022,1401)" d="m0 0 11 1 9 4 8 7 6 8 6 15 11 34 8 30 8 45 3 26 2 6 5-1 3-6 2-9 1-14 4 2 11 7 7 7 9 15 4 10 1 5v15l-4 12-6 9-7 6-10 4-6 1h-9l1-6v-14l-4-4-3 1-11 24-8 10-10 10-12 7-12 4-7 1h-18l-15-4-11-6-11-9-9-11-6-10-6-15-4-1h-2l-2 8 1 10 1 5h-10l-13-4-8-6-7-9-4-12-1-5v-10l5-16 9-14 9-9 10-7h3l4 23 2 6 6 1 2-4 4-34 6-35 7-30 10-31 7-19 5-9 8-9 11-5z" fill="#FBFBF7"/>
<path transform="translate(532,82)" d="m0 0h987l38 3 15 2 26 6 17 4 20 6 16 4 13 6 13 5 16 7 16 8 10 6 9 4 11 7 9 5 4 2v2l5 2 11 8 11 9 9 6 10 7v2l5 2 5 5 5 4 6 7 8 7 14 14 4 5v2h2v2h2v2h2l7 8 9 12 8 11v2h2l4 7 8 11 6 8 2 3v3h2l11 22-1 3-11-20-12-19-10-14-12-16-8-10-12-14-3-3v-2h-2l-7-8-20-20-11-9-7-6-13-10-16-12-10-7-21-13-23-13-27-13-20-8-21-8-26-7-28-7-38-6-25-2h-1e3l-34 3-26 4-40 10-24 7-26 10-14 6-16 8-25 13-23 15-11 7-14 10-14 11-5 4h-2v2l-11 9-7 7-8 7-16 16-9 11-9 10-11 14-9 13-8 12-11 17-12 22-16 32-11 28-7 22-6 22-6 27-5 29-4 36-1 837 1 334 3 26 6 28 6 20 8 21 8 16 9 16 10 15 10 14 1 3h2l8 10 10 10 7 8 10 9 11 9 18 13 17 10 19 10 30 12 24 7 25 5 12 1h1370l19-2 24-5 26-8 22-9 27-14 14-9 15-11 11-9 10-9 4-5 8-7 12-13 8-11 10-14 8-13 9-16 10-23 6-17 6-20 6-34 1-10 1-1169 2 4v6l1 6v39l1 5-1 25v132l1 124v308l-1 69 1 67v164l-1 211-2 20-4 26v6l-2 3v3h-2l-1 6-8 24-4 10-6 12-1 4h-2l-2 7-9 16-8 12h-2v3h-2l-2 4-1 3-4 4-1 2h-2v3l-3 3-1 2h-2v2h-2l-2 5-10 9h-2l-2 4-9 9h-2v2l-4 1v2l-11 8h-2v2l-12 8h-2v2l-10 6h-2v2l-8 3-4 1v2l-17 8-26 10-20 6-20 4-18 2-29 1h-1337l-21-2-25-5-17-4-7-3-8-3-11-5-12-5-24-12-9-5v-2l-4-1v-2l-5-2-6-4v-2l-5-2v-2h-3l-3-3-2-1v-2l-4-2-3-2v-2l-4-2v-2l-5-2v-2l-2-1-15-15v-2h-2l-5-5-4-8v-2h-2l-4-6v-3h-2v-2h-2l-4-6v-2h-2l-2-3v-4h-2l-6-10-4-9v-2l-2-1v-4h-2l-4-11v-3l-2-1-3-10-3-6v-5l-2-1v-6h-2l-1-5-4-17-1-5-1-10-1-6-2-25v-1141l2-34 2-21 2-8 2-16 4-18 4-16 4-17 5-12 6-20 8-21 24-48h2l2-6 7-13h2l4-8h2l2-5 7-10 1-3h2l2-4 7-10 1-2h2l2-5 4-5 5-5 10-11h2v-2l5-5 2-3h2v-2l6-5 7-6 4-5 5-2v-2h2v-2h2v-2l14-11 12-9h2v-2l3-2h3l1-3 11-7h2v-2l14-8h2v-2l14-8 36-18 3-2h3v-2l15-5 13-5 8-3 4-2 14-3 7-2 25-7 17-4 18-3 16-2z" fill="#F2EACC"/>
<path transform="translate(1545,525)" d="m0 0h3v2l6 1 10 5 1 3h2v2l4 1v2l5 2 11 6v2l4 2 10 8 4 2v2l5 1 2 2 3 4v3h2v2l6 3v2h2v2h2l7 8 9 11v2h2l2 5 4 2v2h2l4 6v2h2l6 10 4 7v2h2l5 8 2-8 2 1 1 8v9l7 16 9 23 3 11 4 9 1 4 1 3h2l1-12 2-2 1 2v31l-1 3 1 10-1 13 2 1 1 11-1 9v36l-2 12-1 13-1 2 2 1-2 6v2h-2v2h-2v6l-4 10 1 7-2 3h-2v2h-2v5l-3 7v2h-2l-1 6-3 6h-1l-3 9-6 13h-2v2h-2v4h-2v3h-2l-1 4-1 3h-2v2h-2v6h-2l-1 3-7 9-3 3h-2l-2 6-3 3h-2l-2 4-6 7h-2l-2 5h-2v2h-2l-1 2-2 3-6 2-2 4h-2l-2 4-4 2-1 3-3 2-1-1-5 5-3 1v2l-6 4h-3v2h-3v2l-9 5-2 2-2-1-2 4-5 1-1 2-7 1v2h-2l-1 2-9 3-1 3h-3l-1 2-11 3-9 3-7 3-10 2-1 2-11 4-7 1-5 1-18 3v23l1 16 1 2v20l2 1-1 2 1 8 1 14 2 6-1 1 3 32 3 15 1 15 1 4 1 11 1 14 1 11 2 9v14l1 1 1 14v8l2 13 4 32 2 5v8l1 4v16l-7 10-5 6-4 1v2l-6 1-9 1-10-1-2-1v-2l-8-1-5-1-1-2-5 1v-2l-12-2-8-3-16-3-5-1-5 1v4l2 2-3 3-2 18-5 21-3 12-7 20-3 7-8 12-1-3 10-21 8-24 5-25 5-28 1-3 11 1 35 9 24 7 4 1h13l10-5 5-8 1-3v-15l-6-65-4-31-7-76-5-48-7-69-2-18 7-2 17-3 24-6 18-6 29-12 24-14 19-13 17-13 10-9h2v-2l8-7 11-11 21-27 13-20 10-19 4-9 8-20 6-17 4-13 4-23 3-29v-36l-3-28-4-23-5-19-8-23-9-21-8-15-11-18-8-11-3-5-18-22-23-23-11-9-12-9-16-11-25-15z" fill="#E2C27A"/>
<path transform="translate(88,488)" d="m0 0 2 2-1 11-2 20-1 11-1 26v1134l2 19 3 21 2 8-1 2 2 1 4 16 4 10 4 13 1 10h2l1 6h2v2l2 1 4 9 7 12 6 9v2l3 1 4 8v2l2 1 6 9 3 2 1 6h2l1 4h2v2h2v2h2v2h2v2h2v2h2v2l4 2 7 6v2l4 2 1 4 5 2v2l5 2v2l4 1 5 4 11 7 8 6v2l5 2 22 11 4 3 4 1 6 3 9 2 7 3 9 5 6 2-3 1-18-6-26-11-26-14-10-7-18-13-14-13-8-7-11-12-9-10v-2h-2l-10-14-10-15-10-17-8-16-6-15-8-24-5-22-4-24-1-12-1-335 1-836 4-36z" fill="#E0BF76"/>
<path transform="translate(1959,487)" d="m0 0h1l4 33 1 16v1169l-3 22-5 26-8 25-8 20-8 16-10 18-9 13-9 12-7 9-12 13-4 4-2-1 5-7h2v-2h2l1-4 6-5 5-7 1-3h2l2-4 4-6 4-7 4-6h2l1-5 3-3 6-11 5-9 3-6 7-20 3-11 3-9 4-13 3-13 3-21 1-15 1-38v-44l-1-3 1-5v-459l-1-13v-32-3l1-5-1-7 1-5v-133l-1-45 1-10v-259l-1-92-3-41-2-12z" fill="#E0BF76"/>
<path transform="translate(524,85)" d="m0 0h1e3l25 2 38 6 36 9 7 2v1h-12l-18-5-18-4-6-2-16-3-17-2-25-1h-1e3l-24 2-9 1-6 2h-7l-18 4-15 4-12 5h-16l4-2 42-11 24-4 29-3z" fill="#E0C077"/>
<path transform="translate(349,707)" d="m0 0h2l-2 9-6 26-3 24-1 13v37l3 26 4 23 7 24 10 26 11 23 8 14 8 11 10 14 13 15 7 8 12 12 11 9 12 10 19 13 14 8 15 9 34 14 15 5 31 7 13 2 2 2-6 59-2 19-1 3-2-1 2-19-1-6 1-4v-12l2-25 1-10-4-3-11-2-9-1-14-4-8-3v-2l-4 1v-2l-10-3-10-2v-2l-6-1-14-6-3-2v-2l-5-2-6-1v-2l-7-2v-2l-6-2-2-4h-3v-2l-6-1-4-4-4-1v-2h-2v-2h-2l-6-7-3-1v-2l-6-2v-2l-4-2-3-2v-4l-6-1-1-4-3-1-1-4h-2v-2h-2l-2-4-2-1v-2l-5-2-6-5v-3h-2v-2h-3l-2-4-4-7v-3h-2l-4-8-2-5h-2l-7-10-1-3-3-4-3-10-4-8v-3h-2v-5l-2-1-1-4-2-1-2-10-1-6-2-1-3-9-2-4v-4l-2-1-1-4v-3h-2v14l-2-4-2-49v-21l-1-15v-13l2-6v-37l1-4-1-7 2-3 1 6h2l4-8z" fill="#E1C176"/>
<path transform="translate(1024,338)" d="m0 0h19v2l8 2 1 2 23 2 32 6 25 9 11 3 9 4 8 1 5 4v2l6 1 21 12 4 2v2h3v2l4 1 7 5 5 2 1 2 3 1v2l6 2 4 5 5 3 3 3 10 8 3 3 5 3 7 8 10 11 3 3v2h2l8 11v2l4 2 8 12 7 9h5v3h8l17-4 21-2h11l-4 2-30 4-22 5-4 1-9-13-13-18-9-11-5-6-24-24-11-9-3-2v-2l-4-2-14-10-13-9-19-11-16-8-22-10-27-9-39-9-24-3-13-1h-35l-35 4-23 5-29 8-18 7-25 11-25 14-16 11-9 6-13 11-11 9-16 15-7 8-8 10h-2l-2 4-8 9-6 10-6 8-5 7-28-6-19-3-16-2v-1h20l27 5 9 2 6-1 5-2v-4h2l2-6h2l1-4 12-14 9-11 12-13 1-2h2l1-4h3v-2h2v-2l5-2v-2h2v-2l4-1 1-3 12-9 2-3 5-2 7-7 12-6 3-1v-2l8-5 7-4 6-3 4-3 6-1v-2l4-2 1-4 11-1 30-10 13-4 2-2 19-3 8-2 27-3 3-3 22-2z" fill="#E1BE70"/>
<path transform="translate(1347,1514)" d="m0 0h2l-2 5-8 11-6 6h-2v2h-2v2h-2v2h-2v2h-2v2l-15 9-15 7-20 7-8 1-4 2-12 1h-10l-9 1-16-1-11-1-9-1-4-1-12-2h-8l-2-1 4 20 1 23-3 13-3 9-4 8 5 5 12 6 16 9 5 3v2l9 3 5 3 2 3 6 3v2l4 1 6 3 1 2h5v2h2v2l10 3 12 2h8l12-1 6-2 9-2 2-4h2v-2l7-4h2v-2h2v-2h2v-2h2v-2l4-4h2v-2l5-1 3 3 2 8-1 16-4 17-4 11-5 9h-2l-1 4-2 4h-2l-2 4-3 1-2 4-4 5h-3v2l-15 10-4 2h-4v2l-9 3-5 1-1 2-3 1-14 3h-23l-7-2-10-2 2 5 3 2v2l3 1-3 1-14-12-6-8 1-2 15 6 17 3h25l16-3 11-4 15-8 10-8 11-11 9-14 7-16 3-11 1-7v-16l-2-5h-3v2h-2l-2 4-6 6h-2v2l-10 7-10 5-13 4h-20l-16-5-19-9-18-13-19-12-15-8-13-5-1-4 8-16 3-10 1-7v-11l-2-14-8-20-1-4 16 4 25 5 8 1h39l26-4 19-6 16-8 10-6 11-9 9-9z" fill="#E1BF73"/>
<path transform="translate(1632,105)" d="m0 0 8 1 19 7 20 8 28 13 17 9 20 12 17 11 13 10 16 12 10 8 10 9 8 7 21 21v2h2l7 8 12 14 12 16 10 14 12 18 11 19 12 23 11 24 10 27 6 19 8 28 3 12 1 12-1 5h-1l-5-27-2-4-3-12-6-21-6-18-8-19-5-12-7-15-8-14-8-16-6-10-8-12-4-5v-3h-2l-7-11-3-4v-2h-2l-2-5h-2l-8-11-5-5-7-8v-2l-3-1v-2l-3-1v-2h-2v-2l-3-1-3-3v-2h-2v-2h-2l-8-8v-2h-2v-2h-2v-2l-4-2-2-2v-3l-4-1v-2l-6-2v-2l-5-2-5-3v-2l-5-2-13-11-8-4-5-3-4-4-5-3v-2l-4-1-4-4-21-10-19-10-17-8-9-4-20-7-6-4-9-2z" fill="#E0BF76"/>
<path transform="translate(1457,1144)" d="m0 0 2 4v5l2 1-1 2 1 8 1 14 2 6-1 1 3 32 3 15 1 15 1 4 1 11 1 14 1 11 2 9v14l1 1 1 14v8l2 13 4 32 2 5v8l1 4v16l-7 10-5 6-4 1v2l-6 1-9 1-10-1-2-1v-2l-8-1-5-1-1-2-5 1v-2l-12-2-8-3-16-3-5-1-5 1v4l2 2-3 3-2 18-5 21-3 12-7 20-3 7-8 12-1-3 10-21 8-24 5-25 5-28 1-3 11 1 35 9 24 7 4 1h13l10-5 5-8 1-3v-15l-6-65-4-31-7-76-5-48-2-21z" fill="#E1BE70"/>
<path transform="translate(701,1514)" d="m0 0 5 5 7 9 7 7v2l4 2 12 9 16 8 12 5 19 5 19 3h42l19-3 26-7h2l-2 5-6 14-3 13v21l3 12 6 14 3 5v2l-20 8-18 10-17 12-16 10-12 6-15 5-18 2-14-3-14-6-9-7-16-16 3-1 3 2v2l4 1v3h3l3 5 5 3v3l5 1v2l6 2 10 4 16 1 3-1 1 1 16-3 12-5 4-4 12-6 4-3h2l1-2 5-1 1-3 5-2 1-2 5-1 1-3 4-1 5-3 2-2 2 1v-2l7-4 7-3 5-4-2-1h2l-6-13-3-13v-23l2-13 2-10-3-1-21 3-9 2-17 2h-19l-9-1-12-1-17-4-10-3-8-3v-2l-6-1-14-7v-2l-7-2v-2h-3v-2l-4-2v-2h-2l-7-8-4-4v-2h-2l-3-5v-2h-2z" fill="#E3BF70"/>
<path transform="translate(1545,525)" d="m0 0h3v2l6 1 10 5 1 3h2v2l4 1v2l5 2 11 6v2l4 2 10 8 4 2v2l5 1 2 2 3 4v3h2v2l6 3v2h2v2h2l7 8 9 11v2h2l2 5 4 2v2h2l4 6v2h2l6 10 4 7v2h2l5 8 2-8 2 1 1 8v9l7 16 9 23 3 11 4 9 1 4 1 3h2l1-12 2-2 1 2v31l-1 3 1 10-1 13 2 1 1 11-1 9v36l-2 11-2 3-3 17h-1l1-14 3-29v-36l-3-28-4-23-5-19-8-23-9-21-8-15-11-18-8-11-3-5-18-22-23-23-11-9-12-9-16-11-25-15z" fill="#E2C27A"/>
<path transform="translate(587,1173)" d="m0 0h1v17l-4 40-4 42-2 24-4 33-6 64-1 17 5 10 6 5 7 3h11l30-8 40-10h6l2 6 1 16h-2l-2-12-1-5-2-2-3 1-2-1-1 2-13 2-10 4-3 1-20 4-9 2-7 2-9 2h-7l-5-1-1-2-3-1v-2h-3v-2h-3l-2-6-2-1-2-8v-16l2-21 1-10 1-9 1-6 2-9-1-5 2-4v-17l3-15-1-3 4-24v-9l2-16 2-15v-9l3-18 2-26z" fill="#E1BE71"/>
<path transform="translate(607,491)" d="m0 0h20v1l-35 5-33 8-21 7-23 10-16 8-19 11-22 15-14 12h-2v2l-8 7-13 12-7 8-9 11-6 8-4 5-10 15-12 21-8 16-6 15-6 17h-3l1-7 2-7 2-1 3-9 8-16 3-13-1-1v-7l2-2 1 8h3l2-6 2-4h2l2-5 4-8 4-4h2l2-6 1-2h2v-2h2l2-5 2-3h2l2-4 3-4h2l3-6h2l2-4 4-5 8-7h2l2-4h2v-2l8-7 3-1v-2l7-4 6-5 4-1v-2l10-6 10-7 7-4 11-7 7-2h2l1-3 9-3h3l1-2 15-5 5-2h3v-2l13-2 1-3h3l1-2h11l19-4z" fill="#E1BF72"/>
<path transform="translate(1325,1664)" d="m0 0 4 1 3 5 1 5-1 16-4 17-4 11-5 9h-2l-1 4-2 4h-2l-2 4-3 1-2 4-4 5h-3v2l-15 10-4 2h-4v2l-9 3-5 1-1 2-3 1-14 3h-23l-7-2-10-2 2 5 3 2v2l3 1-3 1-14-12-6-8 1-2 15 6 17 3h25l16-3 11-4 15-8 10-8 11-11 9-14 7-16 3-11 1-7v-16l-2-5h-3v2h-2l-2 4-6 6h-2v2l-10 7-10 5-13 4h-17l-1-2 5-1 17-1 6-2 9-2 2-4h2v-2l7-4h2v-2h2v-2h2v-2h2v-2l4-4h2v-2z" fill="#E2C176"/>
<path transform="translate(1059,345)" d="m0 0 16 1 32 6 25 9 11 3 9 4 8 1 5 4v2l6 1 21 12 4 2v2h3v2l4 1 7 5 5 2 1 2 3 1v2l6 2 4 5 5 3 3 3 10 8 3 3 5 3 7 8 10 11 3 3v2h2l8 11v2l4 2 8 12 7 9h5v3h8l17-4 21-2h11l-4 2-30 4-22 5-4 1-9-13-13-18-9-11-5-6-24-24-11-9-3-2v-2l-4-2-14-10-13-9-19-11-16-8-22-10-27-9-39-9-24-3v-1z" fill="#E1BE6E"/>
<path transform="translate(409,106)" d="m0 0 4 1-14 7-20 7-5 1-38 20-3-1v2l-13 7-13 9-9 5-7 7-5 1-14 10-11 9h-2v2l-6 4-3 1-1 3-5 4h-2v2l-8 7-3 3-4 2-2 4-4 5-5 5-4 2-1 2-4 2-2 4-6 7-4 2v2l-3-1 12-14 11-12 15-15 8-7 10-9h2v-2l13-10 16-12 15-10 19-12 17-10 22-11 17-8 28-11z" fill="#E0C077"/>
<path transform="translate(349,707)" d="m0 0h2l-2 9-6 26-3 24-1 13v37l3 26 4 23 2 10-3 1-1-5-2-1-1-4v-3h-2v14l-2-4-2-49v-21l-1-15v-13l2-6v-37l1-4-1-7 2-3 1 6h2l4-8z" fill="#E1C075"/>
<path transform="translate(719,1665)" d="m0 0h1v18l3 19 6 16 9 15 10 11 14 11 14 8 15 5 14 2h24l14-2 15-5 4-1-2 4-15 14-4 1v-2h2l1-5-3-1-11 2-19 1-14-2-9-3-12-5-20-10-5-5-1-3-5-2-7-8v-2h-2l-8-13-3-5-4-13-3-14-1-5v-15z" fill="#E2C278"/>
<path transform="translate(486,1053)" d="m0 0 5 1 12 7 34 14 15 5 31 7 13 2 2 2-6 59-2 19-1 3-2-1 2-19-1-6 1-4v-12l2-25 1-10-4-3-11-2-9-1-14-4-8-3v-2l-4 1v-2l-10-3-10-2v-2l-6-1-14-6-3-2v-2l-5-2-6-1v-2h-2z" fill="#E1BF73"/>
<path transform="translate(1024,1722)" d="m0 0 3 3 9 14 9 10 7 7 15 11 21 10 21 6v2l-12-2-13-4-8-4-8-1 1-4h-5l-1-2-5-2-2-4-5-1v-3h-2l-4-4v-2l-6-2-6-7-5-10-2-3h-2v2h-3v3h-2l-2 5-8 8-7 8h-2l-2 4h-2v2l-5 3h-2v2l-6 3h-2l-1 2h-4l-1 3-6 2-8 3h-3l-1 2-3-1v2l-11 3h-7l3-2 24-8 16-8 11-7 10-8 11-11 10-15z" fill="#E1BF72"/>
<path transform="translate(191,254)" d="m0 0 2 2-5 9-5 5-6 9-1 2h-2l-2 4-13 20-2 4h-2l-2 6-12 22-6 12-2 5h-2l-1 5-6 12-8 20-4 11-4 9-2 1 2-9 7-20 10-23 18-36 10-17 18-27 8-11z" fill="#E0BF76"/>
<path transform="translate(1555,1055)" d="m0 0 2 1-4 2v2h-2l-1 2-9 3-1 3h-3l-1 2-11 3-9 3-7 3-10 2-1 2-11 4-7 1-5 1-18 3v23l1 16 1 2v10l-3 4-6-57 7-2 17-3 24-6 18-6 29-12z" fill="#E1BF73"/>
<path transform="translate(884,1642)" d="m0 0m-1 1m-1 1m-1 1m-1 1 1 3-17 8-17 11-24 16-14 7-15 5-18 2-14-3-14-6-9-7-16-16 3-1 3 2v2l4 1v3h3l3 5 5 3v3l5 1v2l6 2 10 4 16 1 3-1 1 1 16-3 12-5 4-4 12-6 4-3h2l1-2 5-1 1-3 5-2 1-2 5-1 1-3 4-1 5-3 2-2 2 1v-2l7-4z" fill="#E1C075"/>
<path transform="translate(947,1753)" d="m0 0h2l-1 4-6 16-5 10-2 1v-6h2l1-6 1-2-1-4-3 1-1 2-5 3h-3v2l-4 2h-3v2l-4 2h-3v2l-9 3h-4l-1 2-5 2h-5l-7 2-3 1-11 1h-21l-9-1-2-1v-2h34l17-3 21-6 20-11 13-9z" fill="#E1C179"/>
<path transform="translate(587,1173)" d="m0 0h1v17l-4 40-4 42-2 24-4 33-2 2-1-7v-12l3-15-1-3 4-24v-9l2-16 2-15v-9l3-18 2-26z" fill="#E1BE70"/>
<path transform="translate(1911,335)" d="m0 0 4 4 8 16 8 17 5 14v3l2 1 5 18 3 9 3 11v5l2 1 3 12 3 10 2 15 2 7 1 10 2 8 1 12v25h-1l-2-23-5-35-4-22-7-26-8-26-8-22-11-26-8-16z" fill="#F2EACC"/>
<path transform="translate(1188,1761)" d="m0 0 16 6 17 3h25l16-3h4l-1 3h-4l-1 2-3 1-14 3h-23l-7-2-10-2 2 5 3 2v2l3 1-3 1-14-12-6-8z" fill="#E2C279"/>
<path transform="translate(1100,1754)" d="m0 0 4 1 10 9 21 12 14 6 18 5 15 2 30 1v1l-7 1-21 1-20-2-9-4-11-3-7-3-1-2-7-1v-2l-5-1-6-3v-2h-2l-3-3-2-1-1 6 3 6v4h-2l-9-21z" fill="#E1BE70"/>
<path transform="translate(1709,839)" d="m0 0h2l-1 13-1 2 2 1-2 6v2h-2v2h-2v6l-4 10 1 7-2 3h-2v2h-2v5l-3 7v2h-2l-1 6-3 6h-1l-3 9-6 13h-2v2h-2v4h-2v3h-2l-1 4-1 3h-2v2h-2v2l-3-1 10-15 10-19 4-9 8-20 6-17 4-13 2-10 2-2 2-14z" fill="#E1BE70"/>
<path transform="translate(1170,1608)" d="m0 0h3l-2 12-3 10-5 10 5 5 12 6 16 9 5 3v2l9 3 5 3 2 3 6 3v2l4 1 6 3 1 2h5v2h2v2l10 3 9 2 2 3-10-2-14-5-17-9-15-11-19-12-15-8-13-5-1-4 8-16 3-10z" fill="#E1BD6E"/>
<path transform="translate(889,1559)" d="m0 0h2l-2 5-6 14-3 13v21l3 12 6 14 3 5v2l-8 3h-3l2-4 3-1v-2l-2-1h2l-6-13-3-13v-23l2-13 2-10-3-1-12 2h-6l3-3z" fill="#E3C37A"/>
<path transform="translate(336,804)" d="m0 0 2 3 3 29 5 29 2 10-3 1-1-5-2-1-1-4v-3h-2v14l-2-4-2-49v-19z" fill="#E2C47D"/>
<path transform="translate(607,491)" d="m0 0h20v1l-35 5-33 8-21 7-23 10-17 8-4-1 9-6 7-2h2l1-3 9-3h3l1-2 15-5 5-2h3v-2l13-2 1-3h3l1-2h11l19-4z" fill="#E2C074"/>
<path transform="translate(1024,338)" d="m0 0h19v2l8 2 1 2 7 1v1h-66l2-4 2-1 22-2z" fill="#E0BF75"/>
<path transform="translate(1545,525)" d="m0 0h3v2l6 1 10 5 1 3h2v2l4 1v2l5 2 11 6v2l4 2 10 8 4 2v2l5 1 2 2 3 4v3h2v2l6 3v2h2v2h2l7 8 9 11-1 3-12-14-21-21-11-9-12-9-16-11-25-15z" fill="#E3C072"/>
<path transform="translate(975,1173)" d="m0 0h104v1l-7 1v1h-92l-5-2z" fill="#F5F0DC"/>
<path transform="translate(1271,455)" d="m0 0 4 1v2h2l8 11v2l4 2 8 12 7 9h5v3h8l17-4 21-2h11l-4 2-30 4-22 5-4 1-9-13-13-18-9-11-4-5z" fill="#E2BD6B"/>
<path transform="translate(393,620)" d="m0 0 1 3-7 10-13 22-8 16-7 17-6 17h-3l1-7 2-7 2-1 3-9 8-16 3-13-1-1v-7l2-2 1 8h3l2-6 2-4h2l2-5 4-8 4-4h2z" fill="#E4C784"/>
<path transform="translate(1423,491)" d="m0 0h19l20 4 13 2 11 3 9 3h2v2h6v2l30 10 7 5-3 1-32-13-19-6-28-7-31-4z" fill="#E1BE6F"/>
<path transform="translate(1377,1420)" d="m0 0 4 1-3 3-2 18-5 21-3 12-7 20-3 7-8 12-1-3 10-21 8-24 5-25 3-18z" fill="#E1BE6F"/>
<path transform="translate(701,1514)" d="m0 0 5 5 7 9 7 7v2l4 2 12 9 16 8 12 5 16 5-2 3-9-2-9-4-4-1v-2l-6-1-14-7v-2l-7-2v-2h-3v-2l-4-2v-2h-2l-7-8-4-4v-2h-2l-3-5v-2h-2z" fill="#E1BD6E"/>
<path transform="translate(1059,345)" d="m0 0 16 1 32 6 25 9 11 3 10 5v2l-36-12-39-9-24-3v-1z" fill="#E1BE6F"/>
<path transform="translate(673,1433)" d="m0 0h2l2 5 5 25 7 23 11 24 1 4h-2v-2h-2v-2l-2-1-5-11-7-15-4-20-3-8z" fill="#E1C177"/>
<path transform="translate(1378,1410)" d="m0 0 11 1 35 9 24 7 15 2v1l-14 1-5-1v-2l-8-1-5-1-1-2-5 1v-2l-12-2-8-3-16-3-5-1-5 1-1 5-2 2z" fill="#E1BD6D"/>
<path transform="translate(987,345)" d="m0 0h6l2 2-29 4-26 6-24 7-12 4 1-3 20-7 13-4 2-2 19-3 8-2z" fill="#E1BD6D"/>
<path transform="translate(1877,1883)" d="m0 0h3l-2 4-9 9-14 11-16 12-19 11-17 9-2-1 9-6 9-5h4v-2l7-4h2v-2l6-4h2v-2l4-1 1-3 7-4 5-2v-2h3l1-3 4-1v-2h2v-2h2v-2l3-3h2l1-3z" fill="#E0C077"/>
<path transform="translate(1615,1014)" d="m0 0v3l-3 1-2 4-4 2-1 3-3 2-1-1-5 5-3 1v2l-6 4h-3v2h-3v2l-9 5-2 2-2-1-2 4-5 1-1 2-4-1 4-4 14-8 18-13 13-10 8-6z" fill="#E0BF74"/>
<path transform="translate(1347,1514)" d="m0 0h2l-2 5-8 11-6 6h-2v2h-2v2h-2v2h-2v2h-2v2l-15 9-15 7-20 7-3-2 6-3 16-5 16-8 10-6 11-9 9-9z" fill="#E1BD6E"/>
<path transform="translate(719,1665)" d="m0 0h1v18l3 19 6 16 9 15 10 11 4 3-1 2-6-3-7-8v-2h-2l-8-13-3-5-4-13-3-14-1-5v-15z" fill="#E3C57E"/>
<path transform="translate(1e3 1748)" d="m0 0h3l-2 4-4 4h-2l-2 4h-2v2l-5 3h-2v2l-6 3h-2l-1 2h-4l-1 3-6 2-8 3h-3l-1 2-3-1v2l-11 3h-7l3-2 24-8 16-8 11-7 10-8z" fill="#E2C176"/>
<path transform="translate(1159,1559)" d="m0 0 16 4 5 2-2 3h-8l-2-1 4 20 1 21-2 1-2-21-4-13-6-14z" fill="#E3C37C"/>
<path transform="translate(486,1053)" d="m0 0 5 1 12 7 34 14 15 5 5 1-4 1v2l-7-2v-2l-4 1v-2l-10-3-10-2v-2l-6-1-14-6-3-2v-2l-5-2-6-1v-2h-2z" fill="#E1BE71"/>
<path transform="translate(346,875)" d="m0 0 3 1 7 21 8 20 9 20-1 2-4-2-3-10-4-8v-3h-2v-5l-2-1-1-4-2-1-2-10-1-6-2-1-3-9z" fill="#E1BE70"/>
<path transform="translate(1555,1055)" d="m0 0 2 1-4 2v2h-2l-1 2-9 3-1 3h-3l-1 2-11 3-9 3-7 3-10 2-1 2-6 1 1-2h2v-2l21-7 29-12z" fill="#E1BE71"/>
<path transform="translate(1457,1144)" d="m0 0 2 4v5l2 1-1 2 1 8 1 14 2 6-1 1 3 31-3 1-6-61z" fill="#E1BE6F"/>
<path transform="translate(947,1753)" d="m0 0h2l-1 4-6 16-5 10-2 1v-6h2l1-6 1-2-1-4-3 1-1 2-5 3h-3l2-4 11-7z" fill="#E3C37B"/>
<path transform="translate(1690,908)" d="m0 0 1 3-4 8h-1l-3 9-6 13h-2v2h-2v4h-2v3h-2l-1 4-1 3h-2v2h-2v2l-3-1 10-15 10-19 4-9 3-7z" fill="#E1BE6F"/>
<path transform="translate(105,412)" d="m0 0 2 2-1 8-5 17-2 12-2 6-2 9-2 7-2 6-1-4 7-33 4-15z" fill="#E0C077"/>
<path transform="translate(546,506)" d="m0 0h3v2l-28 11-16 8-7 3-4-1 9-6 7-2h2l1-3 9-3h3l1-2 15-5z" fill="#E2BF72"/>
<path transform="translate(1352,491)" d="m0 0h14l-4 2-30 4-22 5-4 1 1-3 5-2 5-1 17-4z" fill="#E2C176"/>
<path transform="translate(1100,1754)" d="m0 0 4 1 10 9 2 2-3 1-2-1-1 6 3 6v4h-2l-9-21z" fill="#E3C072"/>
<path transform="translate(878,1609)" d="m0 0 2 3 3 12 6 14 3 5v2l-8 3h-3l2-4 3-1v-2l-2-1h2l-6-13-3-13z" fill="#E3C47D"/>
<path transform="translate(587,1173)" d="m0 0h1v17l-4 40-1 13h-1l-2-8 1-9 1-12 2-11 2-26z" fill="#E1BD6C"/>
<path transform="translate(723,1665)" d="m0 0 5 1 1 3 4 1v3h3l3 5 5 3v3l5 1v2l6 2 11 5 1 2-10-3-12-6-10-9-12-12z" fill="#E1BE6F"/>
<path transform="translate(780,1566)" d="m0 0 22 3 21 2-4 3h-7l-9-1-12-1-11-3z" fill="#E1BE71"/>
<path transform="translate(1063,1766)" d="m0 0 4 1 21 10 21 6v2l-12-2-13-4-8-4-8-1 1-4h-5z" fill="#E2BF73"/>
<path transform="translate(1170,1608)" d="m0 0h3l-2 12-3 10-5 10 5 5 1 2-7-1-4-2 1-5 7-14 3-10z" fill="#E1BE70"/>
<path transform="translate(1606,565)" d="m0 0 6 2v2l3 3v3h2v2l6 3v2h2v2h2l7 8 9 11-1 3-12-14-20-20v-2l-4-3z" fill="#E1BE6F"/>
<path transform="translate(425,581)" d="m0 0 2 2-16 17-12 16-5 5-1-2 2-4h2v-2h2l2-5 2-3h2l2-4 3-4h2l3-6h2l2-4 4-5z" fill="#E2BF71"/>
<path transform="translate(1711,814)" d="m0 0 2 1v12l-2 11-2 3-3 17h-1l1-14 3-29z" fill="#E6CA89"/>
<path transform="translate(901,366)" d="m0 0h3l-1 3-25 11v-3l3-3 2-1 1-4 11-1z" fill="#E1BF74"/>
<path transform="translate(925,1770)" d="m0 0 1 4-4 2h-3v2l-4 2h-3v2l-9 3h-4l-1 2-5 2-5-1 3-1v-2l18-6z" fill="#E2C176"/>
<path transform="translate(1794,1940)" d="m0 0h5l-4 3-24 9-6 2-4-1 5-3 17-7z" fill="#E0C077"/>
<path transform="translate(679,491)" d="m0 0h20l27 5 6 2v2l-12-2-25-4-16-2z" fill="#E1BD6E"/>
<path transform="translate(719,1665)" d="m0 0h1v18l3 19 4 11v2h-2l-4-10-3-14-1-5v-15z" fill="#E2C279"/>
<path transform="translate(1036,1173)" d="m0 0h43v1l-7 1v1h-42v-1l6-1z" fill="#F2EBCF"/>
<path transform="translate(884,1642)" d="m0 0m-1 1m-1 1m-1 1m-1 1 1 3-17 8-17 11-4 2-2-2 4-3h2l1-2 5-1 1-3 4-1 5-3 2-2 2 1v-2l7-4z" fill="#E1C075"/>
<path transform="translate(365,668)" d="m0 0 1 3-7 17-6 17h-3l1-7 2-7 2-1 3-9 6-12z" fill="#E4C57E"/>
<path transform="translate(1709,839)" d="m0 0h2l-1 13-1 2 2 1-2 6v2h-2v2h-2v6h-3l1-9 1-5 2-2 2-14z" fill="#E0BF74"/>
<path transform="translate(976,1770)" d="m0 0m-2 1h2l-1 4-6 2-8 3h-3l-1 2-3-1v2l-11 3h-7l3-2 24-8z" fill="#E1BF73"/>
<path transform="translate(673,1433)" d="m0 0h2l2 5 5 25 2 9-3-1-4-15-1-1z" fill="#E1BE70"/>
<path transform="translate(566,497)" d="m0 0h14l-1 3-27 7h-3v-3l13-2 1-3h3z" fill="#E2C279"/>
<path transform="translate(1678,641)" d="m0 0 2 1 1 8v14l-3-3-6-11v-3l4 2z" fill="#E2C581"/>
<path transform="translate(804,426)" d="m0 0 2 1v2l-8 7-10 9-4 5-3-1 6-8h2l1-4h3v-2h2v-2l5-2v-2h2v-2z" fill="#E2C279"/>
<path transform="translate(1297,1748)" d="m0 0 1 4-15 10-4 2h-4v2l-9 2-1-2 10-4 13-7z" fill="#E2BF73"/>
<path transform="translate(1155,368)" d="m0 0 6 2 4 3v2l6 1 6 4-1 2-5-2-18-8v-3z" fill="#E1BF73"/>
<path transform="translate(781,449)" d="m0 0 2 2-11 12-1 2h-2l-2 4-7 8-2-2 12-14z" fill="#E1BD6C"/>
<path transform="translate(1267,1566)" d="m0 0 4 1-1 2-9 3-12 1-2-4z" fill="#E2C075"/>
<path transform="translate(1115,1766)" d="m0 0 6 2 17 10-1 3-1-2-7-1v-2l-5-1-6-3v-2h-2z" fill="#E2C37C"/>
<path transform="translate(1751,1955)" d="m0 0h6l-3 2-17 4-16 3-14 1v-2l21-3 6-1 15-3z" fill="#E0C077"/>
<path transform="translate(1460,1181)" d="m0 0 1 4h2l3 31-3 1-3-29z" fill="#E2BD6B"/>
<path transform="translate(1545,525)" d="m0 0h3v2l6 1 10 5 1 3h2v2l3 1-3 1-22-13z" fill="#E3C47C"/>
<path transform="translate(1681,662)" d="m0 0 2 2 6 13 6 16-1 4-2-3-12-30z" fill="#E2C073"/>
<path transform="translate(446,561)" d="m0 0m-1 1 2 1-2 4-3 1v2l-8 7-6 5h-2l1-4 4-3h2l2-4h2v-2z" fill="#E3C47B"/>
<path transform="translate(372,937)" d="m0 0 4 4 6 11 3 4v3l-3-1-1-4h-2l-7-10-1-3-1-2h2z" fill="#E3C580"/>
<path transform="translate(1177,380)" d="m0 0 12 6 7 4v2h3v2l4 1v3l-21-12-6-3z" fill="#E1BE70"/>
<path transform="translate(1377,1420)" d="m0 0 4 1-3 3-2 18-2 7h-2v-8l3-18z" fill="#E3C278"/>
<path transform="translate(1631,997)" d="m0 0 2 1v2h-2l-2 5h-2v2h-2l-1 2-2 3-9 3 2-3h2v-2l8-7z" fill="#E2C177"/>
<path transform="translate(349,707)" d="m0 0h2l-2 9-5 21-2 1 1-8 1-7-1-3 5-10z" fill="#E6CB8B"/>
<path transform="translate(690,1491)" d="m0 0 3 4 8 17v2h-2v-2h-2v-2l-2-1-5-11-1-5z" fill="#E1BF71"/>
<path transform="translate(827,407)" d="m0 0 2 1v2l-10 8-11 9h-3l2-4 12-9 2-3 5-2z" fill="#E1BD6D"/>
<path transform="translate(1180,1565)" d="m0 0 13 2 15 2-4 3-10-1-4-1-10-2z" fill="#E1BE6F"/>
<path transform="translate(1575,1043)" d="m0 0 2 1-6 7-3-1-2 4-5 1-1 2-4-1 4-4 14-8z" fill="#E3C47D"/>
<path transform="translate(750,1748)" d="m0 0 4 1 13 9 4 3-3 1-15-8-3-4z" fill="#E0BE71"/>
<path transform="translate(756,1559)" d="m0 0 11 3 13 4-2 3-9-2-9-4-4-1z" fill="#E1BF72"/>
<path transform="translate(1123,358)" d="m0 0 20 6 10 5v2l-33-11z" fill="#E2BD6B"/>
<path transform="translate(1361,1490)" d="m0 0 1 3-3 7-7 11-2 3-1-3 9-19z" fill="#E1BD6E"/>
<path transform="translate(470,1043)" d="m0 0 5 2 13 7-1 2-3 1-3-1v-2l-6-2-2-4h-3z" fill="#E3C47E"/>
<path transform="translate(1694,696)" d="m0 0h2l4 12 4 10-3 3-7-21z" fill="#E4C783"/>
<path transform="translate(767,1693)" d="m0 0 14 1 3-1 4 1v2l-10 2-9-1-3-3z" fill="#E3C580"/>
<path transform="translate(877,377)" d="m0 0m-5 1h5l-1 3-18 10v-3l5-4 6-3z" fill="#E1BD6E"/>
<path transform="translate(1178,1790)" d="m0 0h34v1l-7 1-21 1v-2h-6z" fill="#E7D098"/>
<path transform="translate(666,1410)" d="m0 0h6l2 6 1 16h-2l-2-12-1-5-1-4z" fill="#E3C073"/>
<path transform="translate(1277,1693)" d="m0 0 7 1-1 2-4 1h-17l-1-2 5-1z" fill="#E3C581"/>
<path transform="translate(879,1581)" d="m0 0 2 2-2 26-2 1v-19z" fill="#E0BF73"/>
<path transform="translate(1347,1514)" d="m0 0h2l-2 5-8 11-6 6-3-1 8-8z" fill="#E1BD6B"/>
<path transform="translate(1518,513)" d="m0 0 12 3 9 5 1 2-6-1-16-7z" fill="#E2C074"/>
<path transform="translate(800,1570)" d="m0 0h10l13 1-4 3h-7l-9-1h-2z" fill="#E3C888"/>
<path transform="translate(532,1074)" d="m0 0 10 3 15 4-4 1v2l-7-2v-2l-4 1v-2l-10-3z" fill="#E2BE6E"/>
<path transform="translate(1491,1081)" d="m0 0 4 1-4 4-11 2-1-4z" fill="#E2C075"/>
<path transform="translate(1300,491)" d="m0 0 4 3h5v3l3 1-1 2-6 2-5-8z" fill="#E0BE71"/>
<path transform="translate(1438,1425)" d="m0 0 10 2 15 2v1l-14 1-5-1v-2l-6-1z" fill="#E2BC68"/>
<path transform="translate(406,603)" d="m0 0v3l-6 9-5 6-2-2 2-4h2v-2h2l2-5z" fill="#E3C37A"/>
<path transform="translate(583,1217)" d="m0 0h1v13l-1 13h-1l-2-8 1-9 1-8z" fill="#E2BC69"/>
<path transform="translate(975,1173)" d="m0 0h20l-1 3h-14l-5-2z" fill="#EEDDAF"/>
<path transform="translate(1326,495)" d="m0 0v3l-20 5 1-3 5-2 5-1z" fill="#E6C987"/>
<path transform="translate(1953,453)" d="m0 0 2 4 1 12-1 5h-1l-3-17v-3z" fill="#E1BE6F"/>
<path transform="translate(719,1665)" d="m0 0h1v22l-3-1v-15z" fill="#E1BF72"/>
<path transform="translate(1587,1035)" d="m0 0 3 1-1 3-5 1v2h-3v2l-6 2 4-6z" fill="#E0BE72"/>
<path transform="translate(1059,345)" d="m0 0 16 1 6 2v1h-9l-18-2v-1z" fill="#E1BD6C"/>
<path transform="translate(619,1422)" d="m0 0 3 1-2 2-9 2-4 1-7 2v-3z" fill="#E2BD6B"/>
<path transform="translate(1060,1173)" d="m0 0h19v1l-7 1v1h-16l4-1z" fill="#EEDBAC"/>
<path transform="translate(1590,555)" d="m0 0 5 1 6 5 4 2 3 5 3 3-5-2-10-9-6-4z" fill="#E5C57C"/>
<path transform="translate(747,1685)" d="m0 0h2v2l6 2 11 5 1 2-10-3-12-6z" fill="#E2BC69"/>
<path transform="translate(365,668)" d="m0 0 1 3-7 17-3-1 5-13z" fill="#E1BF71"/>
<path transform="translate(744,495)" d="m0 0m-2 1 3 1-2 5-2 1-9-3 1-2h6z" fill="#E2C27A"/>
<path transform="translate(739,1736)" d="m0 0 4 2 5 6 4 3-1 2-6-3-7-8z" fill="#E4C782"/>
<path transform="translate(1204,397)" d="m0 0 5 2 6 3 1 2 3 1v2h2l-1 3-13-9-3-2z" fill="#E1BD6C"/>
<path transform="translate(1063,1766)" d="m0 0 4 1 10 5-1 2-4 1-4-2 1-3h-5z" fill="#E3C47D"/>
<path transform="translate(1457,1144)" d="m0 0 2 4v5l2 1-1 2 1 7-3 2-1-9z" fill="#E2BD6B"/>
<path transform="translate(1222,408)" d="m0 0 5 3 5 5 6 5-3 1-3-2v-2l-4-2-7-5z" fill="#E1BE70"/>
<path transform="translate(952,1780)" d="m0 0 4 1h-2v2l-11 3h-7l3-2z" fill="#E4C680"/>
<path transform="translate(595,493)" d="m0 0h4v3l-16 3h-3v-2z" fill="#E1BE6F"/>
<path transform="translate(923,359)" d="m0 0 3 2-22 7 1-3z" fill="#E2BC6A"/>
<path transform="translate(901,1782)" d="m0 0 3 1-1 2h-4l-1 2-5 2-5-1 3-1v-2z" fill="#E1BE6F"/>
<path transform="translate(1329,1536)" d="m0 0h2v2h-2v2h-2v2h-2v2h-2v2l-5 3-2-1 5-5z" fill="#E0BE72"/>
<path transform="translate(1711,799)" d="m0 0h2v15h-2l-1 4v-18z" fill="#E1C47F"/>
<path transform="translate(1597,1027)" d="m0 0 2 1v3l-4 3h-2v2l-3 1-2-1 1-3z" fill="#E5C884"/>
<path transform="translate(1670,945)" d="m0 0h1v5h-2l-1 4-1 3h-2v2h-2v2l-3-1z" fill="#E2BC69"/>
<path transform="translate(1330,1671)" d="m0 0 3 3v7l-2 8h-1z" fill="#E2C47E"/>
<path transform="translate(1161,1639)" d="m0 0 3 1 2 4 3 3-7-1-4-2v-3z" fill="#E3C47D"/>
<path transform="translate(858,1567)" d="m0 0 3 1-10 4h-5l-2-3z" fill="#E1BD6D"/>
<path transform="translate(508,521)" d="m0 0m-1 1m-4 1h4l-2 4-7 3-4-1z" fill="#E0BE72"/>
<path transform="translate(781,449)" d="m0 0 2 2-9 10-2-2 7-8z" fill="#E0BF73"/>
<path transform="translate(886,1786)" d="m0 0h5l-3 1-1 3-9 1-2-2 6-2z" fill="#E5C782"/>
<path transform="translate(1297,1748)" d="m0 0 1 4-11 7-2-1 4-4z" fill="#E1BE70"/>
<path transform="translate(1325,1664)" d="m0 0 4 1 3 5-3 2-2-5h-3v2h-2l-1 3-2-2 2-3h2v-2z" fill="#E1BD6D"/>
<path transform="translate(878,1609)" d="m0 0 2 3 3 14h-3l-3-12z" fill="#E4C681"/>
<path transform="translate(1555,1055)" d="m0 0 2 1-4 2v2h-2l-1 2-9 3v-2z" fill="#E1BD6E"/>
<path transform="translate(493,529)" d="m0 0h5l-4 4-9 5h-2l2-4 7-4z" fill="#E6CB8A"/>
<path transform="translate(661,1411)" d="m0 0h8l-2 3-4-1-1 2-5 1-2-2 2-2z" fill="#E0BE72"/>
<path transform="translate(1331,1686)" d="m0 0h1l-1 8-3 10-2 1 3-17z" fill="#E2BE6F"/>
<path transform="translate(1681,662)" d="m0 0 2 2 5 11v4h-2l-6-15z" fill="#E2BF71"/>
<path transform="translate(1502,505)" d="m0 0 1 2 9 3 6 3-1 2-17-7v-2z" fill="#E1BD6C"/>
<path transform="translate(717,495)" d="m0 0 9 1 6 2v2l-18-3z" fill="#E2BC68"/>
<path transform="translate(1693,898)" d="m0 0 2 1-2 6v2l-5 3 1-5 3-6z" fill="#E1BF72"/>
<path transform="translate(434,573)" d="m0 0h2l-2 4-6 5h-2l1-4z" fill="#E6C984"/>
<path transform="translate(490,88)" d="m0 0h7l-1 2-9 1-6 2v-3z" fill="#E0BF74"/>
<path transform="translate(797,1692)" d="m0 0h4v2l-12 3-3-1h2v-2z" fill="#E2BD6B"/>
<path transform="translate(1460,1181)" d="m0 0 1 4h2l1 10-3 2z" fill="#E2BC68"/>
<path transform="translate(1238,421)" d="m0 0 7 6 3 3-1 2-11-9z" fill="#E2BD6B"/>
<path transform="translate(770,1761)" d="m0 0 9 3 5 2-1 3-13-6z" fill="#E1C075"/>
<path transform="translate(1364,1480)" d="m0 0h2l-3 9-4 3 3-10z" fill="#E1BF73"/>
<path transform="translate(1694,696)" d="m0 0h2l4 12-3 1-3-9z" fill="#E3C47C"/>
<path transform="translate(1632,105)" d="m0 0 8 1 7 3v2l-12-3z" fill="#E0BF74"/>
<path transform="translate(767,1693)" d="m0 0 9 1 2 2-2 1h-7l-3-3z" fill="#E1C279"/>
<path transform="translate(393,620)" d="m0 0 1 3-7 9v-3l1-4 4-2z" fill="#E7CD90"/>
<path transform="translate(251,1938)" d="m0 0 6 3 6 2-1 2-5-1-7-3z" fill="#E0BF75"/>
<path transform="translate(1306,1741)" d="m0 0v3l-5 6h-3l1-4 3-3z" fill="#E4C47B"/>
<path transform="translate(1317,1671)" d="m0 0h3l-2 4-6 5-1-3h2v-2h2v-2h2z" fill="#E4C377"/>
<path transform="translate(462,1037)" d="m0 0 5 2 4 4-3 1-4-1-2-2z" fill="#E2C176"/>
<path transform="translate(1701,871)" d="m0 0 3 1-3 9-3 1z" fill="#E1BD6D"/>
<path transform="translate(1352,491)" d="m0 0h14l-4 2-12 1v-2z" fill="#E2BD6B"/>
<path transform="translate(1327,1704)" d="m0 0 1 4-3 6-3 2 3-10z" fill="#E3C47C"/>
<path transform="translate(721,1703)" d="m0 0h2l4 10v2h-2l-4-10z" fill="#E1BF73"/>
<path transform="translate(1465,496)" d="m0 0 11 1 1 3-11-1z" fill="#E2C178"/>
<path transform="translate(815,417)" d="m0 0m-1 1m-1 1m-2 1h2v3l-7 5-1-2 5-5z" fill="#E1BE70"/>
<path transform="translate(1296,1689)" d="m0 0 2 1-9 4-5 1-1-2 6-2z" fill="#E1BD6E"/>
<path transform="translate(847,1663)" d="m0 0h4l-1 3-7 4-2-2 4-3h2z" fill="#E1BE70"/>
<path transform="translate(1164,1630)" d="m0 0 3 1-4 8-4 2 2-5z" fill="#E1BD6C"/>
<path transform="translate(1622,1006)" d="m0 0m-1 1m-1 1 2 4-9 3 2-3h2v-2z" fill="#E5CA88"/>
<path transform="translate(387,627)" d="m0 0v3l-1 5-3 4-2-1 5-10z" fill="#E4C680"/>
<path transform="translate(1643,605)" d="m0 0h2l2 5 4 2v3l-4-2-4-6z" fill="#E2C47D"/>
</svg>
